# 3ds Max Wavefront OBJ Exporter v0.97b - (c)2007 guruware
# File Created: 31.05.2019 14:25:50

#
# object Box001
#

v  -20.0000 0.0000 20.0000
v  -20.0000 0.0000 -20.0000
v  20.0000 0.0000 -20.0000
v  20.0000 0.0000 20.0000
v  -15.2932 4.6365 15.2932
v  15.2932 4.6365 15.2932
v  15.2932 4.6365 -15.2932
v  -15.2932 4.6365 -15.2932
# 8 vertices

vn 0.0000 -1.0000 -0.0000
vn 0.0000 1.0000 -0.0000
vn 0.0000 0.7124 0.7018
vn 0.7018 0.7124 -0.0000
vn 0.0000 0.7124 -0.7018
vn -0.7018 0.7124 -0.0000
# 6 vertex normals

vt 0.5211 0.5082 0.0000
vt 0.5211 0.0328 0.0000
vt 0.9877 0.0328 0.0000
vt 0.9877 0.5082 0.0000
vt 0.4441 0.4523 0.0000
vt 0.0873 0.4523 0.0000
vt 0.0873 0.0888 0.0000
vt 0.4441 0.0888 0.0000
vt 0.4990 0.5308 0.0000
vt 0.0324 0.5308 0.0000
vt 0.0102 0.5082 0.0000
vt 0.0102 0.0328 0.0000
vt 0.0324 0.0102 0.0000
vt 0.4990 0.0102 0.0000
# 14 texture coords

g Box001
f 1/1/1 2/2/1 3/3/1 
f 3/3/1 4/4/1 1/1/1 
f 5/5/2 6/6/2 7/7/2 
f 7/7/2 8/8/2 5/5/2 
f 1/9/3 4/10/3 6/6/3 
f 6/6/3 5/5/3 1/9/3 
f 4/11/4 3/12/4 7/7/4 
f 7/7/4 6/6/4 4/11/4 
f 3/13/5 2/14/5 8/8/5 
f 8/8/5 7/7/5 3/13/5 
f 2/2/6 1/1/6 5/5/6 
f 5/5/6 8/8/6 2/2/6 
# 12 faces

